<svg xmlns="http://www.w3.org/2000/svg" xmlns:xlink="http://www.w3.org/1999/xlink" width="1920" zoomAndPan="magnify" viewBox="0 0 1440 809.999993" height="1080" preserveAspectRatio="xMidYMid meet" version="1.0"><defs><filter x="0%" y="0%" width="100%" height="100%" id="a25bf580b3"><feColorMatrix values="0 0 0 0 1 0 0 0 0 1 0 0 0 0 1 0 0 0 1 0" color-interpolation-filters="sRGB"/></filter><mask id="880d3f832a"><g filter="url(#a25bf580b3)"><rect x="-144" width="1728" fill="#000000" y="-80.999999" height="971.999992" fill-opacity="0.2471"/></g></mask><clipPath id="b1fad2bff6"><path d="M 0 0 L 394 0 L 394 313 L 0 313 Z M 0 0 " clip-rule="nonzero"/></clipPath><clipPath id="c088ead0de"><path d="M -417.8125 139.757812 L 112.992188 -464.113281 L 624.480469 -14.515625 L 93.675781 589.359375 Z M -417.8125 139.757812 " clip-rule="nonzero"/></clipPath><clipPath id="e19fb589a6"><path d="M -417.8125 139.757812 L 112.992188 -464.113281 L 624.480469 -14.515625 L 93.675781 589.359375 Z M -417.8125 139.757812 " clip-rule="nonzero"/></clipPath><clipPath id="b35f44b5c3"><path d="M 0 0 L 425 0 L 425 277 L 0 277 Z M 0 0 " clip-rule="nonzero"/></clipPath><clipPath id="89c993b8fb"><path d="M -417.8125 139.757812 L 112.992188 -464.113281 L 624.480469 -14.515625 L 93.675781 589.359375 Z M -417.8125 139.757812 " clip-rule="nonzero"/></clipPath><clipPath id="dddad5d800"><path d="M -417.8125 139.757812 L 112.992188 -464.113281 L 624.480469 -14.515625 L 93.675781 589.359375 Z M -417.8125 139.757812 " clip-rule="nonzero"/></clipPath><clipPath id="d0a8562a29"><path d="M 0 0 L 372 0 L 372 354 L 0 354 Z M 0 0 " clip-rule="nonzero"/></clipPath><clipPath id="0836638517"><path d="M -417.8125 139.757812 L 112.992188 -464.113281 L 624.480469 -14.515625 L 93.675781 589.359375 Z M -417.8125 139.757812 " clip-rule="nonzero"/></clipPath><clipPath id="3b4a8fa6b7"><path d="M -417.8125 139.757812 L 112.992188 -464.113281 L 624.480469 -14.515625 L 93.675781 589.359375 Z M -417.8125 139.757812 " clip-rule="nonzero"/></clipPath><clipPath id="93a9ec2450"><path d="M 0 0 L 487 0 L 487 522 L 0 522 Z M 0 0 " clip-rule="nonzero"/></clipPath><clipPath id="c9bd5aa2cf"><path d="M -417.8125 139.757812 L 112.992188 -464.113281 L 624.480469 -14.515625 L 93.675781 589.359375 Z M -417.8125 139.757812 " clip-rule="nonzero"/></clipPath><clipPath id="0e3757a83a"><path d="M -417.8125 139.757812 L 112.992188 -464.113281 L 624.480469 -14.515625 L 93.675781 589.359375 Z M -417.8125 139.757812 " clip-rule="nonzero"/></clipPath><clipPath id="7cefcab96b"><path d="M 0 0 L 284 0 L 284 436 L 0 436 Z M 0 0 " clip-rule="nonzero"/></clipPath><clipPath id="2db50576b4"><path d="M -417.8125 139.757812 L 112.992188 -464.113281 L 624.480469 -14.515625 L 93.675781 589.359375 Z M -417.8125 139.757812 " clip-rule="nonzero"/></clipPath><clipPath id="3e1ad83574"><path d="M -417.8125 139.757812 L 112.992188 -464.113281 L 624.480469 -14.515625 L 93.675781 589.359375 Z M -417.8125 139.757812 " clip-rule="nonzero"/></clipPath><clipPath id="614176e1ae"><rect x="0" width="625" y="0" height="590"/></clipPath><mask id="4abf75e421"><g filter="url(#a25bf580b3)"><rect x="-144" width="1728" fill="#000000" y="-80.999999" height="971.999992" fill-opacity="0.2471"/></g></mask><clipPath id="5deedf49f7"><path d="M 43 329 L 762 329 L 762 609 L 43 609 Z M 43 329 " clip-rule="nonzero"/></clipPath><clipPath id="7f3f873db8"><path d="M 0.582031 604.988281 L 531.386719 1.117188 L 1042.875 450.71875 L 512.070312 1054.589844 Z M 0.582031 604.988281 " clip-rule="nonzero"/></clipPath><clipPath id="460c6ad929"><path d="M 0.582031 604.988281 L 531.386719 1.117188 L 1042.875 450.71875 L 512.070312 1054.589844 Z M 0.582031 604.988281 " clip-rule="nonzero"/></clipPath><clipPath id="13214ddde9"><path d="M 233 167 L 762 167 L 762 609 L 233 609 Z M 233 167 " clip-rule="nonzero"/></clipPath><clipPath id="d226334c17"><path d="M 0.582031 604.988281 L 531.386719 1.117188 L 1042.875 450.71875 L 512.070312 1054.589844 Z M 0.582031 604.988281 " clip-rule="nonzero"/></clipPath><clipPath id="9f82d816ff"><path d="M 0.582031 604.988281 L 531.386719 1.117188 L 1042.875 450.71875 L 512.070312 1054.589844 Z M 0.582031 604.988281 " clip-rule="nonzero"/></clipPath><clipPath id="037548bc01"><path d="M 167 216 L 762 216 L 762 609 L 167 609 Z M 167 216 " clip-rule="nonzero"/></clipPath><clipPath id="968dedbbe1"><path d="M 0.582031 604.988281 L 531.386719 1.117188 L 1042.875 450.71875 L 512.070312 1054.589844 Z M 0.582031 604.988281 " clip-rule="nonzero"/></clipPath><clipPath id="e84d2b8896"><path d="M 0.582031 604.988281 L 531.386719 1.117188 L 1042.875 450.71875 L 512.070312 1054.589844 Z M 0.582031 604.988281 " clip-rule="nonzero"/></clipPath><clipPath id="07d5474394"><path d="M 51 269 L 762 269 L 762 609 L 51 609 Z M 51 269 " clip-rule="nonzero"/></clipPath><clipPath id="fa5ccd9bc1"><path d="M 0.582031 604.988281 L 531.386719 1.117188 L 1042.875 450.71875 L 512.070312 1054.589844 Z M 0.582031 604.988281 " clip-rule="nonzero"/></clipPath><clipPath id="85c3115b88"><path d="M 0.582031 604.988281 L 531.386719 1.117188 L 1042.875 450.71875 L 512.070312 1054.589844 Z M 0.582031 604.988281 " clip-rule="nonzero"/></clipPath><clipPath id="77be044c74"><path d="M 131 283 L 703 283 L 703 609 L 131 609 Z M 131 283 " clip-rule="nonzero"/></clipPath><clipPath id="8cdd7a80a2"><path d="M 0.582031 604.988281 L 531.386719 1.117188 L 1042.875 450.71875 L 512.070312 1054.589844 Z M 0.582031 604.988281 " clip-rule="nonzero"/></clipPath><clipPath id="657a1b6cf5"><path d="M 0.582031 604.988281 L 531.386719 1.117188 L 1042.875 450.71875 L 512.070312 1054.589844 Z M 0.582031 604.988281 " clip-rule="nonzero"/></clipPath><clipPath id="6d00bd53c9"><rect x="0" width="762" y="0" height="609"/></clipPath></defs><g mask="url(#880d3f832a)"><g transform="matrix(1, 0, 0, 1, 0, 0.000000000000039746)"><g clip-path="url(#614176e1ae)"><g clip-path="url(#b1fad2bff6)"><g clip-path="url(#c088ead0de)"><g clip-path="url(#e19fb589a6)"><path fill="#34568d" d="M -276.25 113.183594 L -325.734375 131.394531 L -375.214844 149.617188 L -299.691406 216 L -287.96875 164.59375 Z M 20.664062 3.859375 L 32.394531 -47.558594 L 44.113281 -98.96875 L 81.875 -65.777344 L 119.640625 -32.582031 L 131.359375 -83.992188 L 143.085938 -135.414062 L 180.851562 -102.21875 L 218.613281 -69.023438 L 169.121094 -50.800781 L 119.640625 -32.582031 L 70.15625 -14.363281 Z M -101.75 143.125 L -90.027344 91.714844 L -78.300781 40.292969 L -40.539062 73.488281 L -2.773438 106.683594 L 34.988281 139.875 L 72.75 173.070312 L 23.257812 191.292969 L -26.222656 209.515625 L 11.539062 242.707031 L 49.304688 275.902344 L -0.179688 294.121094 L -49.671875 312.34375 L -37.945312 260.921875 L -26.222656 209.515625 L -14.503906 158.101562 L -2.773438 106.683594 L -52.265625 124.910156 Z M -136.875 105.851562 L -186.359375 124.066406 L -235.847656 142.292969 L -198.085938 175.488281 L -160.324219 208.679688 L -122.5625 241.875 L -84.800781 275.066406 L -134.28125 293.285156 L -183.765625 311.503906 L -172.046875 260.089844 L -160.324219 208.679688 L -148.597656 157.257812 Z M 393.101562 -39.074219 L 343.625 -20.851562 L 294.140625 -2.632812 L 331.898438 30.554688 L 369.664062 63.753906 Z M 393.101562 -39.074219 " fill-opacity="1" fill-rule="evenodd"/></g></g></g><g clip-path="url(#b35f44b5c3)"><g clip-path="url(#89c993b8fb)"><g clip-path="url(#dddad5d800)"><path fill="#1f3669" d="M 234.402344 -267.324219 L 184.921875 -249.105469 L 135.429688 -230.882812 L 173.191406 -197.6875 L 210.953125 -164.496094 L 222.683594 -215.914062 Z M -184.921875 -18.738281 L -173.203125 -70.152344 L -161.484375 -121.558594 L -85.960938 -55.175781 L -135.441406 -36.960938 Z M 88.539062 -25.230469 L 39.050781 -7.003906 L -10.433594 11.214844 L 65.089844 77.597656 L 76.8125 26.191406 Z M 117.179688 246.808594 L 128.898438 195.394531 L 140.625 143.992188 L 178.382812 177.183594 L 216.148438 210.378906 L 253.90625 243.566406 L 291.671875 276.765625 L 303.390625 225.351562 L 315.117188 173.929688 L 265.632812 192.164062 Z M 328.324219 -33.496094 L 278.847656 -15.269531 L 229.363281 2.945312 L 267.121094 36.136719 L 304.886719 69.332031 Z M 424.558594 -190.21875 L 375.074219 -172.003906 L 325.585938 -153.777344 L 363.347656 -120.582031 L 401.113281 -87.386719 L 412.839844 -138.808594 Z M 262.929688 -195.355469 L 274.648438 -246.769531 L 286.378906 -298.1875 L 324.140625 -264.992188 L 361.902344 -231.800781 L 312.410156 -213.578125 Z M 262.929688 -195.355469 " fill-opacity="1" fill-rule="evenodd"/></g></g></g><g clip-path="url(#d0a8562a29)"><g clip-path="url(#0836638517)"><g clip-path="url(#3b4a8fa6b7)"><path fill="#a8c4d4" d="M -151.472656 250.441406 L -200.953125 268.664062 L -250.445312 286.886719 L -212.683594 320.082031 L -174.921875 353.273438 L -163.191406 301.855469 Z M -53.011719 -50.976562 L -102.5 -32.75 L -151.984375 -14.535156 L -114.222656 18.65625 L -76.460938 51.851562 L -64.738281 0.441406 Z M -40.105469 153.945312 L -89.589844 172.164062 L -139.070312 190.378906 L -101.308594 223.574219 L -63.546875 256.765625 L -51.824219 205.359375 Z M 74.597656 184.628906 L 86.316406 133.21875 L 98.042969 81.796875 L 135.808594 114.996094 L 173.566406 148.183594 L 124.074219 166.410156 Z M 225.648438 317.402344 L 237.367188 265.992188 L 249.09375 214.570312 L 286.859375 247.769531 L 324.628906 280.96875 L 275.136719 299.191406 Z M 371.507812 75.304688 L 322.03125 93.527344 L 272.539062 111.753906 L 284.265625 60.332031 L 295.984375 8.917969 L 246.5 27.136719 L 197.015625 45.367188 L 234.773438 78.558594 L 272.542969 111.753906 L 310.296875 144.941406 L 348.066406 178.140625 L 359.792969 126.71875 Z M 152.4375 -101.8125 L 164.160156 -153.222656 L 175.878906 -204.632812 L 213.640625 -171.441406 L 251.402344 -138.246094 L 201.921875 -120.027344 Z M 301.679688 -248.398438 L 252.191406 -230.171875 L 202.707031 -211.953125 L 278.230469 -145.570312 L 289.953125 -196.976562 Z M 301.679688 -248.398438 " fill-opacity="1" fill-rule="evenodd"/></g></g></g><g clip-path="url(#93a9ec2450)"><g clip-path="url(#c9bd5aa2cf)"><g clip-path="url(#0e3757a83a)"><path fill="#1f3669" d="M 91.335938 33.917969 L 41.847656 52.132812 L -7.644531 70.355469 L 30.121094 103.554688 L 67.882812 136.746094 L 79.609375 85.324219 Z M -268.074219 86.921875 L -317.554688 105.140625 L -367.039062 123.355469 L -329.277344 156.550781 L -291.515625 189.742188 L -279.792969 138.335938 Z M 293.847656 -41.613281 L 305.574219 -93.019531 L 317.296875 -144.445312 L 355.058594 -111.253906 L 392.824219 -78.054688 L 343.332031 -59.832031 Z M -41.492188 286.089844 L -90.980469 304.300781 L -140.460938 322.519531 L -102.691406 355.714844 L -64.933594 388.90625 L -53.21875 337.492188 Z M 109.558594 418.859375 L 60.070312 437.078125 L 10.589844 455.289062 L 48.355469 488.488281 L 86.113281 521.675781 L 97.839844 470.273438 Z M 70.300781 -129.707031 L 20.820312 -111.492188 L -28.671875 -93.265625 L -16.941406 -144.683594 L -5.222656 -196.09375 L -54.703125 -177.875 L -104.195312 -159.652344 L -66.433594 -126.457031 L 9.089844 -60.074219 L 46.859375 -26.875 L 58.582031 -78.296875 Z M 133.003906 316.027344 L 144.730469 264.621094 L 156.457031 213.203125 L 179.894531 110.375 L 217.664062 143.570312 L 255.421875 176.761719 L 205.945312 194.984375 L 156.457031 213.203125 L 194.214844 246.390625 L 231.984375 279.585938 L 269.742188 312.777344 L 307.507812 345.972656 L 258.015625 364.199219 L 208.527344 382.414062 L 220.257812 331.007812 L 231.984375 279.585938 L 182.488281 297.8125 Z M 330.941406 243.148438 L 342.675781 191.734375 L 354.394531 140.324219 L 392.152344 173.511719 L 429.921875 206.707031 L 380.433594 224.925781 Z M 387.109375 59.011719 L 398.835938 7.589844 L 410.554688 -43.820312 L 448.324219 -10.621094 L 486.082031 22.566406 L 436.59375 40.78125 Z M 387.109375 59.011719 " fill-opacity="1" fill-rule="evenodd"/></g></g></g><g clip-path="url(#7cefcab96b)"><g clip-path="url(#2db50576b4)"><g clip-path="url(#3e1ad83574)"><path fill="#6690b8" d="M 132.703125 -181.796875 L 83.222656 -163.582031 L 33.734375 -145.355469 L 71.496094 -112.160156 L 109.257812 -78.96875 L 120.984375 -130.390625 Z M -286.625 66.789062 L -274.902344 15.378906 L -263.183594 -36.03125 L -187.660156 30.351562 L -237.140625 48.574219 Z M -65.238281 -108.921875 L -114.726562 -90.691406 L -164.210938 -72.476562 L -126.449219 -39.285156 L -88.683594 -6.085938 L -13.160156 60.296875 L -1.441406 8.886719 L 10.289062 -42.53125 L -39.203125 -24.308594 L -88.683594 -6.085938 L -76.964844 -57.5 Z M -274.246094 251.207031 L -262.527344 199.800781 L -250.800781 148.375 L -213.039062 181.566406 L -175.277344 214.761719 L -224.765625 232.988281 Z M -7.964844 435.171875 L 3.753906 383.757812 L 15.480469 332.339844 L 53.246094 365.535156 L 91.003906 398.722656 L 41.519531 416.957031 Z M 137.890625 193.070312 L 88.417969 211.292969 L 38.925781 229.519531 L 76.683594 262.707031 L 114.449219 295.902344 L 126.175781 244.484375 Z M 195.613281 14.753906 L 146.132812 32.96875 L 96.648438 51.1875 L 134.414062 84.382812 L 172.179688 117.582031 L 183.898438 66.167969 Z M 184.78125 -12.578125 L 196.507812 -64 L 208.230469 -115.40625 L 245.992188 -82.214844 L 283.757812 -49.015625 L 234.273438 -30.804688 Z M 184.78125 -12.578125 " fill-opacity="1" fill-rule="evenodd"/></g></g></g></g></g></g><g mask="url(#4abf75e421)"><g transform="matrix(1, 0, 0, 1, 678, 201)"><g clip-path="url(#6d00bd53c9)"><g clip-path="url(#5deedf49f7)"><g clip-path="url(#7f3f873db8)"><g clip-path="url(#460c6ad929)"><path fill="#34568d" d="M 142.144531 578.414062 L 92.660156 596.628906 L 43.179688 614.847656 L 80.941406 648.039062 L 118.703125 681.234375 L 130.429688 629.824219 Z M 439.058594 469.089844 L 450.789062 417.675781 L 462.507812 366.261719 L 500.269531 399.453125 L 538.035156 432.652344 L 549.753906 381.238281 L 561.480469 329.816406 L 637.011719 396.207031 L 587.515625 414.429688 L 538.035156 432.652344 L 488.550781 450.867188 Z M 316.644531 608.355469 L 328.367188 556.945312 L 340.09375 505.527344 L 377.855469 538.71875 L 415.621094 571.914062 L 453.382812 605.109375 L 491.148438 638.300781 L 441.652344 656.527344 L 392.171875 674.746094 L 429.933594 707.9375 L 467.703125 741.136719 L 418.214844 759.351562 L 368.722656 777.574219 L 380.449219 726.15625 L 392.171875 674.746094 L 403.890625 623.332031 L 415.621094 571.914062 L 366.128906 590.140625 Z M 281.523438 571.082031 L 232.035156 589.296875 L 182.546875 607.527344 L 220.308594 640.71875 L 258.074219 673.910156 L 295.835938 707.105469 L 333.597656 740.296875 L 284.117188 758.515625 L 234.628906 776.734375 L 246.347656 725.320312 L 258.074219 673.910156 L 269.796875 622.492188 Z M 811.5 426.15625 L 762.023438 444.382812 L 712.535156 462.597656 L 750.292969 495.785156 L 788.0625 528.984375 Z M 811.5 426.15625 " fill-opacity="1" fill-rule="evenodd"/></g></g></g><g clip-path="url(#13214ddde9)"><g clip-path="url(#d226334c17)"><g clip-path="url(#9f82d816ff)"><path fill="#1f3669" d="M 652.800781 197.90625 L 603.320312 216.125 L 553.828125 234.351562 L 629.351562 300.734375 L 641.082031 249.316406 Z M 233.472656 446.492188 L 245.191406 395.078125 L 256.914062 343.671875 L 294.675781 376.863281 L 332.4375 410.058594 L 282.953125 428.269531 Z M 506.9375 440 L 457.449219 458.226562 L 407.964844 476.445312 L 445.726562 509.636719 L 483.488281 542.832031 L 495.210938 491.421875 Z M 535.574219 712.039062 L 547.292969 660.628906 L 559.019531 609.222656 L 596.777344 642.414062 L 634.542969 675.609375 L 672.300781 708.800781 L 710.066406 741.996094 L 721.785156 690.582031 L 733.511719 639.160156 L 684.027344 657.394531 Z M 746.722656 431.738281 L 697.246094 449.960938 L 647.757812 468.175781 L 685.515625 501.367188 L 723.28125 534.5625 L 735.003906 483.148438 Z M 842.953125 275.011719 L 793.472656 293.226562 L 743.984375 311.453125 L 781.746094 344.648438 L 819.511719 377.84375 L 831.238281 326.421875 Z M 681.324219 269.875 L 693.042969 218.460938 L 704.773438 167.042969 L 742.535156 200.238281 L 780.296875 233.429688 L 730.804688 251.65625 Z M 681.324219 269.875 " fill-opacity="1" fill-rule="evenodd"/></g></g></g><g clip-path="url(#037548bc01)"><g clip-path="url(#968dedbbe1)"><g clip-path="url(#e84d2b8896)"><path fill="#a8c4d4" d="M 266.925781 715.675781 L 217.441406 733.894531 L 167.949219 752.117188 L 205.710938 785.3125 L 243.476562 818.503906 L 255.207031 767.085938 Z M 365.382812 414.253906 L 315.894531 432.480469 L 266.414062 450.695312 L 304.175781 483.886719 L 341.9375 517.082031 L 353.65625 465.675781 Z M 378.289062 619.175781 L 328.804688 637.394531 L 279.324219 655.609375 L 317.089844 688.804688 L 354.851562 721.996094 L 366.570312 670.589844 Z M 492.996094 649.863281 L 504.710938 598.449219 L 516.4375 547.03125 L 554.203125 580.226562 L 591.960938 613.414062 L 542.46875 631.640625 Z M 644.046875 782.636719 L 655.761719 731.226562 L 667.488281 679.804688 L 705.257812 713 L 743.023438 746.199219 L 693.53125 764.421875 Z M 789.902344 540.535156 L 740.425781 558.757812 L 690.933594 576.984375 L 702.660156 525.5625 L 714.378906 474.152344 L 664.894531 492.367188 L 615.410156 510.597656 L 653.167969 543.789062 L 690.9375 576.988281 L 728.691406 610.175781 L 766.460938 643.371094 L 778.1875 591.953125 Z M 570.835938 363.417969 L 582.558594 312.007812 L 594.273438 260.597656 L 632.035156 293.792969 L 669.800781 326.984375 L 620.320312 345.203125 Z M 720.074219 216.832031 L 670.585938 235.058594 L 621.101562 253.277344 L 658.863281 286.46875 L 696.625 319.664062 L 708.347656 268.253906 Z M 720.074219 216.832031 " fill-opacity="1" fill-rule="evenodd"/></g></g></g><g clip-path="url(#07d5474394)"><g clip-path="url(#fa5ccd9bc1)"><g clip-path="url(#85c3115b88)"><path fill="#1f3669" d="M 509.730469 499.148438 L 460.246094 517.363281 L 410.753906 535.589844 L 448.519531 568.785156 L 486.28125 601.976562 L 498.007812 550.554688 Z M 150.324219 552.152344 L 100.839844 570.371094 L 51.359375 588.585938 L 89.121094 621.78125 L 126.882812 654.972656 L 138.601562 603.566406 Z M 712.242188 423.617188 L 723.96875 372.210938 L 735.691406 320.785156 L 773.453125 353.980469 L 811.21875 387.175781 L 761.726562 405.398438 Z M 376.90625 751.320312 L 327.414062 769.53125 L 277.9375 787.75 L 315.703125 820.945312 L 353.460938 854.136719 L 365.179688 802.726562 Z M 527.953125 884.089844 L 478.46875 902.308594 L 428.984375 920.523438 L 466.75 953.71875 L 504.507812 986.90625 L 516.234375 935.503906 Z M 488.695312 335.523438 L 439.21875 353.742188 L 389.726562 371.964844 L 401.457031 320.546875 L 413.171875 269.136719 L 363.695312 287.355469 L 314.199219 305.578125 L 351.964844 338.773438 L 389.726562 371.964844 L 427.488281 405.160156 L 465.253906 438.355469 L 476.980469 386.933594 Z M 551.402344 781.257812 L 563.128906 729.855469 L 574.855469 678.433594 L 598.292969 575.605469 L 636.058594 608.804688 L 673.816406 641.992188 L 624.339844 660.214844 L 574.855469 678.433594 L 612.613281 711.621094 L 650.378906 744.816406 L 688.136719 778.007812 L 725.902344 811.203125 L 676.410156 829.429688 L 626.925781 847.644531 L 638.652344 796.238281 L 650.378906 744.816406 L 600.886719 763.042969 Z M 749.339844 708.378906 L 761.074219 656.964844 L 772.792969 605.554688 L 810.550781 638.742188 L 848.316406 671.941406 L 798.832031 690.15625 Z M 805.503906 524.242188 L 817.230469 472.824219 L 828.949219 421.410156 L 866.71875 454.609375 L 904.476562 487.796875 L 854.992188 506.015625 Z M 805.503906 524.242188 " fill-opacity="1" fill-rule="evenodd"/></g></g></g><g clip-path="url(#77be044c74)"><g clip-path="url(#8cdd7a80a2)"><g clip-path="url(#657a1b6cf5)"><path fill="#6690b8" d="M 551.101562 283.433594 L 501.617188 301.648438 L 452.128906 319.878906 L 527.652344 386.261719 L 539.378906 334.839844 Z M 131.769531 532.019531 L 143.492188 480.613281 L 155.210938 429.199219 L 192.972656 462.390625 L 230.734375 495.585938 L 181.253906 513.804688 Z M 353.160156 356.308594 L 303.671875 374.539062 L 254.183594 392.753906 L 291.945312 425.945312 L 329.714844 459.144531 L 367.476562 492.335938 L 405.238281 525.53125 L 416.957031 474.117188 L 428.6875 422.699219 L 379.195312 440.921875 L 329.714844 459.144531 L 341.433594 407.730469 Z M 144.148438 716.4375 L 155.871094 665.03125 L 167.59375 613.605469 L 205.359375 646.800781 L 243.121094 679.992188 L 193.632812 698.21875 Z M 410.429688 900.402344 L 422.148438 848.992188 L 433.875 797.570312 L 471.640625 830.765625 L 509.398438 863.957031 L 459.914062 882.1875 Z M 556.289062 658.304688 L 506.8125 676.523438 L 457.320312 694.75 L 495.078125 727.9375 L 532.84375 761.136719 L 544.570312 709.714844 Z M 614.011719 479.984375 L 564.527344 498.199219 L 515.046875 516.421875 L 552.808594 549.613281 L 590.578125 582.8125 L 602.296875 531.398438 Z M 603.175781 452.652344 L 614.902344 401.230469 L 626.625 349.824219 L 664.386719 383.015625 L 702.152344 416.214844 L 652.667969 434.429688 Z M 603.175781 452.652344 " fill-opacity="1" fill-rule="evenodd"/></g></g></g></g></g></g></svg>